<svg xmlns="http://www.w3.org/2000/svg" xmlns:xlink="http://www.w3.org/1999/xlink" width="180" zoomAndPan="magnify" viewBox="0 0 135 67.499998" height="90" preserveAspectRatio="xMidYMid meet" version="1.0"><defs><g/></defs><g fill="#000000" fill-opacity="1"><g transform="translate(4.034499, 43.731059)"><g><path d="M 13 -21.671875 C 15.039062 -21.671875 16.875 -21.359375 18.5 -20.734375 C 20.132812 -20.117188 21.429688 -19.207031 22.390625 -18 C 23.347656 -16.789062 23.828125 -15.320312 23.828125 -13.59375 L 17.296875 -13.59375 C 17.296875 -14.476562 16.90625 -15.191406 16.125 -15.734375 C 15.34375 -16.285156 14.394531 -16.5625 13.28125 -16.5625 C 11.664062 -16.5625 10.445312 -16.128906 9.625 -15.265625 C 8.800781 -14.410156 8.390625 -13.203125 8.390625 -11.640625 L 8.390625 -9.65625 C 8.390625 -8.09375 8.800781 -6.878906 9.625 -6.015625 C 10.445312 -5.160156 11.664062 -4.734375 13.28125 -4.734375 C 14.394531 -4.734375 15.34375 -4.992188 16.125 -5.515625 C 16.90625 -6.046875 17.296875 -6.722656 17.296875 -7.546875 L 12.46875 -7.546875 L 12.46875 -11.890625 L 23.828125 -11.890625 L 23.828125 0 L 20.3125 0 L 19.625 -2.109375 C 17.6875 -0.453125 15.148438 0.375 12.015625 0.375 C 8.484375 0.375 5.828125 -0.546875 4.046875 -2.390625 C 2.273438 -4.242188 1.390625 -6.992188 1.390625 -10.640625 C 1.390625 -14.253906 2.394531 -16.992188 4.40625 -18.859375 C 6.414062 -20.734375 9.28125 -21.671875 13 -21.671875 Z M 13 -21.671875 "/></g></g></g><g fill="#000000" fill-opacity="1"><g transform="translate(28.045364, 43.731059)"><g><path d="M 10.3125 -16.71875 C 13.300781 -16.71875 15.582031 -16.015625 17.15625 -14.609375 C 18.738281 -13.203125 19.53125 -11.054688 19.53125 -8.171875 L 19.53125 -7.125 L 7.28125 -7.125 C 7.28125 -5.945312 7.539062 -5.054688 8.0625 -4.453125 C 8.59375 -3.859375 9.425781 -3.5625 10.5625 -3.5625 C 11.59375 -3.5625 12.347656 -3.773438 12.828125 -4.203125 C 13.316406 -4.640625 13.5625 -5.21875 13.5625 -5.9375 L 19.53125 -5.9375 C 19.53125 -3.957031 18.773438 -2.410156 17.265625 -1.296875 C 15.765625 -0.179688 13.566406 0.375 10.671875 0.375 C 7.640625 0.375 5.285156 -0.332031 3.609375 -1.75 C 1.941406 -3.164062 1.109375 -5.304688 1.109375 -8.171875 C 1.109375 -10.972656 1.921875 -13.097656 3.546875 -14.546875 C 5.179688 -15.992188 7.4375 -16.71875 10.3125 -16.71875 Z M 10.5625 -12.78125 C 8.613281 -12.78125 7.53125 -11.863281 7.3125 -10.03125 L 13.3125 -10.03125 C 13.3125 -10.875 13.066406 -11.539062 12.578125 -12.03125 C 12.097656 -12.53125 11.425781 -12.78125 10.5625 -12.78125 Z M 10.5625 -12.78125 "/></g></g></g><g fill="#000000" fill-opacity="1"><g transform="translate(46.919739, 43.731059)"><g><path d="M 9.9375 -16.71875 C 12.4375 -16.71875 14.46875 -16.296875 16.03125 -15.453125 C 17.601562 -14.617188 18.390625 -13.265625 18.390625 -11.390625 L 18.390625 -5.015625 C 18.390625 -4.660156 18.46875 -4.367188 18.625 -4.140625 C 18.789062 -3.921875 19.039062 -3.8125 19.375 -3.8125 L 20.484375 -3.8125 L 20.484375 -0.25 C 20.421875 -0.207031 20.257812 -0.140625 20 -0.046875 C 19.75 0.046875 19.382812 0.140625 18.90625 0.234375 C 18.4375 0.328125 17.890625 0.375 17.265625 0.375 C 16.078125 0.375 15.09375 0.191406 14.3125 -0.171875 C 13.539062 -0.535156 13.007812 -1.035156 12.71875 -1.671875 C 11.9375 -1.054688 11.0625 -0.5625 10.09375 -0.1875 C 9.125 0.1875 7.988281 0.375 6.6875 0.375 C 2.84375 0.375 0.921875 -1.148438 0.921875 -4.203125 C 0.921875 -5.796875 1.347656 -7.007812 2.203125 -7.84375 C 3.066406 -8.675781 4.300781 -9.25 5.90625 -9.5625 C 7.519531 -9.875 9.625 -10.03125 12.21875 -10.03125 L 12.21875 -10.828125 C 12.21875 -11.472656 11.992188 -11.957031 11.546875 -12.28125 C 11.109375 -12.613281 10.539062 -12.78125 9.84375 -12.78125 C 9.207031 -12.78125 8.65625 -12.664062 8.1875 -12.4375 C 7.71875 -12.21875 7.484375 -11.859375 7.484375 -11.359375 L 7.484375 -11.234375 L 1.421875 -11.234375 C 1.398438 -11.335938 1.390625 -11.484375 1.390625 -11.671875 C 1.390625 -13.210938 2.125 -14.4375 3.59375 -15.34375 C 5.070312 -16.257812 7.1875 -16.71875 9.9375 -16.71875 Z M 12.21875 -7.125 C 10.46875 -7.125 9.175781 -6.929688 8.34375 -6.546875 C 7.507812 -6.160156 7.09375 -5.648438 7.09375 -5.015625 C 7.09375 -3.984375 7.789062 -3.46875 9.1875 -3.46875 C 10 -3.46875 10.707031 -3.679688 11.3125 -4.109375 C 11.914062 -4.546875 12.21875 -5.082031 12.21875 -5.71875 Z M 12.21875 -7.125 "/></g></g></g><g fill="#000000" fill-opacity="1"><g transform="translate(65.794114, 43.731059)"><g><path d="M 11.796875 -16.75 C 12.265625 -16.75 12.6875 -16.691406 13.0625 -16.578125 C 13.4375 -16.460938 13.625 -16.394531 13.625 -16.375 L 13.625 -11.203125 L 11.640625 -11.203125 C 10.359375 -11.203125 9.429688 -10.867188 8.859375 -10.203125 C 8.296875 -9.546875 8.015625 -8.570312 8.015625 -7.28125 L 8.015625 0 L 1.859375 0 L 1.859375 -16.34375 L 6.90625 -16.34375 L 7.3125 -13.859375 C 7.675781 -14.816406 8.257812 -15.535156 9.0625 -16.015625 C 9.875 -16.503906 10.785156 -16.75 11.796875 -16.75 Z M 11.796875 -16.75 "/></g></g></g><g fill="#000000" fill-opacity="1"><g transform="translate(77.768267, 43.731059)"><g><path d="M 23.5 -8.578125 C 23.5 -5.660156 22.578125 -3.4375 20.734375 -1.90625 C 18.898438 -0.382812 16.289062 0.375 12.90625 0.375 C 9.519531 0.375 6.90625 -0.382812 5.0625 -1.90625 C 3.21875 -3.4375 2.296875 -5.660156 2.296875 -8.578125 L 2.296875 -21.296875 L 9.125 -21.296875 L 9.125 -8.671875 C 9.125 -7.472656 9.441406 -6.515625 10.078125 -5.796875 C 10.722656 -5.085938 11.65625 -4.734375 12.875 -4.734375 C 14.09375 -4.734375 15.023438 -5.09375 15.671875 -5.8125 C 16.328125 -6.539062 16.65625 -7.492188 16.65625 -8.671875 L 16.65625 -21.296875 L 23.5 -21.296875 Z M 23.5 -8.578125 "/></g></g></g><g fill="#000000" fill-opacity="1"><g transform="translate(101.779132, 43.731059)"><g><path d="M 12.625 -16.71875 C 14.832031 -16.71875 16.535156 -15.992188 17.734375 -14.546875 C 18.929688 -13.097656 19.53125 -10.960938 19.53125 -8.140625 C 19.53125 -5.335938 18.929688 -3.21875 17.734375 -1.78125 C 16.535156 -0.34375 14.832031 0.375 12.625 0.375 C 10.726562 0.375 9.203125 -0.242188 8.046875 -1.484375 L 8.046875 6.09375 L 1.890625 6.09375 L 1.890625 -16.34375 L 6.90625 -16.34375 L 7.421875 -14.015625 C 8.617188 -15.816406 10.351562 -16.71875 12.625 -16.71875 Z M 10.703125 -12.171875 C 9.796875 -12.171875 9.113281 -11.847656 8.65625 -11.203125 C 8.207031 -10.566406 7.984375 -9.734375 7.984375 -8.703125 L 7.984375 -7.671875 C 7.984375 -6.640625 8.207031 -5.796875 8.65625 -5.140625 C 9.113281 -4.492188 9.796875 -4.171875 10.703125 -4.171875 C 12.484375 -4.171875 13.375 -5.234375 13.375 -7.359375 L 13.375 -9 C 13.375 -11.113281 12.484375 -12.171875 10.703125 -12.171875 Z M 10.703125 -12.171875 "/></g></g></g><g fill="#000000" fill-opacity="1"><g transform="translate(120.653507, 43.731059)"><g><path d="M 1.890625 0 L 1.890625 -6.15625 L 8.453125 -6.15625 L 8.453125 0 Z M 1.890625 0 "/></g></g></g></svg>